<svg width="14mm" height="14mm" version="1.1" viewBox="0 0 14 14" xmlns="http://www.w3.org/2000/svg">
 <g transform="translate(52.549 -94.353)" stroke="#163858" stroke-linecap="round" stroke-linejoin="round" stroke-width=".15">
  <path d="m-46.033 101.44h-2.9987l-0.30107 0.75268h0.30107q0.44559 0 0.63225 0.17462 0.19269 0.1686 0.19269 0.44559 0 0.27096-0.19269 0.44558-0.18666 0.1686-0.63225 0.1686h-1.6619q-0.44559 0-0.63225-0.1686-0.19269-0.17462-0.19269-0.45161 0-0.27698 0.19871-0.4516 0.19871-0.17463 0.65634-0.16258l1.9389-4.8292h-0.80687q-0.44559 0-0.63827-0.1686-0.18666-0.17463-0.18666-0.45161 0-0.27699 0.18666-0.44559 0.19269-0.17462 0.63827-0.17462l2.6675 6e-3 2.4567 6.0636q0.43354 0 0.57204 0.0963 0.27699 0.19871 0.27699 0.52387 0 0.27096-0.18666 0.44558-0.18666 0.1686-0.63225 0.1686h-1.6619q-0.44559 0-0.63827-0.1686-0.18666-0.17462-0.18666-0.45161 0-0.27096 0.18666-0.43956 0.19269-0.17462 0.63827-0.17462h0.30107zm-0.51182-1.2344-0.99354-2.4447-0.99956 2.4447z" fill="#2f74b9" stop-color="#000000" style="-inkscape-stroke:none;font-variation-settings:normal"/>
  <path d="m-40.814 99.776h-2.517q-0.44559 0-0.63827-0.1686-0.18666-0.17462-0.18666-0.45161 0-0.27096 0.18666-0.43956 0.19269-0.17462 0.63827-0.17462h3.7514v5.7264q0 0.65032-0.27699 1.132-0.27096 0.48774-0.83698 0.83698-0.56602 0.34925-1.2765 0.34925h-1.397q-0.44559 0-0.63827-0.17463-0.18666-0.1686-0.18666-0.43956 0-0.27699 0.18666-0.45161 0.19268-0.1686 0.63827-0.1686h1.3608q0.56602 0 0.87913-0.30709 0.31311-0.30709 0.31311-0.77677zm0.5058-3.5767v1.3066h-1.4753v-1.3066zm-0.5058 3.5767h-2.517q-0.44559 0-0.63827-0.1686-0.18666-0.17462-0.18666-0.45161 0-0.27096 0.18666-0.43956 0.19269-0.17462 0.63827-0.17462h3.7514v5.7264q0 0.65032-0.27699 1.132-0.27096 0.48774-0.83698 0.83698-0.56602 0.34925-1.2765 0.34925h-1.397q-0.44559 0-0.63827-0.17463-0.18666-0.1686-0.18666-0.43956 0-0.27699 0.18666-0.45161 0.19268-0.1686 0.63827-0.1686h1.3608q0.56602 0 0.87913-0.30709 0.31311-0.30709 0.31311-0.77677z" fill="#dcb908"/>
 </g>
</svg>
