<?xml version="1.0" encoding="UTF-8" standalone="no"?>
<!-- Created with Inkscape (http://www.inkscape.org/) -->

<svg
   width="210mm"
   height="297mm"
   viewBox="0 0 210 297.00001"
   version="1.1"
   id="svg1"
   inkscape:version="1.4.2 (ebf0e94, 2025-05-08)"
   sodipodi:docname="icons.svg"
   xmlns:inkscape="http://www.inkscape.org/namespaces/inkscape"
   xmlns:sodipodi="http://sodipodi.sourceforge.net/DTD/sodipodi-0.dtd"
   xmlns="http://www.w3.org/2000/svg"
   xmlns:svg="http://www.w3.org/2000/svg">
  <sodipodi:namedview
     id="namedview1"
     pagecolor="#ffffff"
     bordercolor="#000000"
     borderopacity="0.25"
     inkscape:showpageshadow="2"
     inkscape:pageopacity="0.0"
     inkscape:pagecheckerboard="0"
     inkscape:deskcolor="#d1d1d1"
     inkscape:document-units="mm"
     inkscape:zoom="0.72747424"
     inkscape:cx="-274.92382"
     inkscape:cy="212.37865"
     inkscape:window-width="2867"
     inkscape:window-height="1121"
     inkscape:window-x="2391"
     inkscape:window-y="382"
     inkscape:window-maximized="1"
     inkscape:current-layer="layer1"
     showguides="true">
    <inkscape:page
       x="0"
       y="0"
       width="210"
       height="297.00003"
       id="page20"
       margin="0"
       bleed="0" />
    <inkscape:page
       x="-53.642582"
       y="92.533463"
       width="14"
       height="14.000001"
       id="page21"
       margin="0"
       bleed="0"
       inkscape:export-filename="logo-128png"
       inkscape:export-xdpi="232.22855"
       inkscape:export-ydpi="232.22855" />
    <sodipodi:guide
       position="53.970797,175.35598"
       orientation="0,-1"
       id="guide14"
       inkscape:locked="false" />
  </sodipodi:namedview>
  <defs
     id="defs1" />
  <g
     inkscape:label="Layer 1"
     inkscape:groupmode="layer"
     id="layer1">
    <text
       xml:space="preserve"
       style="font-weight:bold;font-size:12.3319px;font-family:'Courier New';-inkscape-font-specification:'Courier New, Bold';text-align:center;writing-mode:lr-tb;direction:ltr;text-anchor:middle;fill:#dcb908;stroke:#163858;stroke-width:0.15;stroke-linecap:round;stroke-linejoin:round"
       x="118.00869"
       y="90.883469"
       id="text2"><tspan
         sodipodi:role="line"
         id="tspan1"
         style="stroke-width:0.15"
         x="118.00869"
         y="90.883469">AJson</tspan></text>
    <text
       xml:space="preserve"
       style="font-weight:bold;font-size:12.3319px;font-family:'Courier New';-inkscape-font-specification:'Courier New, Bold';text-align:center;writing-mode:lr-tb;direction:ltr;text-anchor:middle;fill:#dcb908;stroke:#163858;stroke-width:0.15;stroke-linecap:round;stroke-linejoin:round"
       x="132.55003"
       y="77.18103"
       id="text3"><tspan
         sodipodi:role="line"
         id="tspan2"
         style="stroke-width:0.15"
         x="132.55003"
         y="77.18103">Abap Json</tspan></text>
    <text
       xml:space="preserve"
       style="font-weight:bold;font-size:12.3319px;font-family:'Courier New';-inkscape-font-specification:'Courier New, Bold';text-align:center;writing-mode:lr-tb;direction:ltr;text-anchor:middle;fill:#dcb908;stroke:#163858;stroke-width:0.15;stroke-linecap:round;stroke-linejoin:round"
       x="113.81407"
       y="104.30626"
       id="text4"><tspan
         sodipodi:role="line"
         id="tspan3"
         style="stroke-width:0.15"
         x="113.81407"
         y="104.30626">AJaj</tspan></text>
    <path
       id="path8"
       style="font-weight:bold;font-size:12.3319px;font-family:'Courier New';-inkscape-font-specification:'Courier New, Bold';text-align:center;text-anchor:middle;fill:#dcb908;stroke:#163858;stroke-width:0.15;stroke-linecap:round;stroke-linejoin:round"
       d="m 39.906135,109.19998 v -0.28903 q -0.46365,0.24688 -1.023644,0.36731 -0.559993,0.12645 -1.017622,0.12645 -0.993537,0 -1.613745,-0.52386 -0.620208,-0.52989 -0.620208,-1.16816 0,-0.77677 0.788808,-1.43913 0.79483,-0.66838 2.191803,-0.66838 0.559993,0 1.294608,0.12043 v -0.29505 q 0,-0.27698 -0.240857,-0.4516 -0.234836,-0.17463 -0.903215,-0.17463 -0.547951,0 -1.421059,0.21678 -0.325158,0.0783 -0.505801,0.0783 -0.246879,0 -0.4215,-0.17462 -0.1686,-0.18064 -0.1686,-0.45763 0,-0.15655 0.06021,-0.27096 0.06021,-0.11441 0.1686,-0.18064 0.108386,-0.0723 0.451608,-0.1686 0.457629,-0.12645 0.933322,-0.19871 0.475694,-0.0783 0.861066,-0.0783 1.150094,0 1.782344,0.49978 0.638273,0.49376 0.638273,1.35482 v 2.54105 h 0.21075 q 0.445586,0 0.632251,0.17462 0.192685,0.1686 0.192685,0.44559 0,0.27096 -0.192685,0.44558 -0.186665,0.1686 -0.632251,0.1686 z m 0,-2.20987 q -0.740636,-0.14451 -1.366865,-0.14451 -0.75268,0 -1.294609,0.36731 -0.3372,0.23483 -0.3372,0.47569 0,0.17462 0.162578,0.28301 0.301072,0.19871 0.824937,0.19871 0.445586,0 1.00558,-0.17463 0.566015,-0.17462 1.005579,-0.47569 z" />
    <path
       style="font-weight:bold;font-size:12.3319px;font-family:'Courier New';-inkscape-font-specification:'Courier New, Bold';text-align:center;text-anchor:middle;fill:#dcb908;stroke:#163858;stroke-width:0.15;stroke-linecap:round;stroke-linejoin:round"
       d="m 33.7161,103.1364 v 3.73329 q 0,0.7045 -0.234836,1.11998 -0.361286,0.6443 -1.04773,1.01763 -0.680422,0.37332 -1.433101,0.37332 -0.969451,0 -2.643411,-0.81891 v -2.02922 q 0,-0.44559 0.168601,-0.63225 0.174621,-0.19269 0.451607,-0.19269 0.270965,0 0.439565,0.19269 0.174622,0.18666 0.174622,0.63225 v 1.2103 q 0.849022,0.40344 1.451166,0.40344 0.319136,0 0.662358,-0.14451 0.343221,-0.15054 0.517843,-0.35527 0.174622,-0.20473 0.228815,-0.40343 0.03011,-0.10839 0.03011,-0.51785 v -3.58877 h -1.499338 q -0.445586,0 -0.638272,-0.1686 -0.186664,-0.17463 -0.186664,-0.45161 0,-0.27699 0.186664,-0.44559 0.192686,-0.17462 0.638272,-0.17462 l 3.456304,0.006 q 0.445586,0 0.632251,0.1686 0.192686,0.1686 0.192686,0.44559 0,0.27698 -0.192686,0.45161 -0.186665,0.1686 -0.632251,0.1686 z"
       id="path7" />
    <path
       id="text5"
       style="font-weight:bold;font-size:12.3319px;font-family:'Courier New';-inkscape-font-specification:'Courier New, Bold';text-align:center;text-anchor:middle;fill:#dcb908;stroke:#163858;stroke-width:0.15;stroke-linecap:round;stroke-linejoin:round"
       d="m 25.502862,107.21291 h -2.998675 l -0.301071,0.75268 h 0.301071 q 0.445587,0 0.632251,0.17462 0.192686,0.1686 0.192686,0.44559 0,0.27096 -0.192686,0.44558 -0.186664,0.1686 -0.632251,0.1686 h -1.661916 q -0.445586,0 -0.63225,-0.1686 -0.192686,-0.17462 -0.192686,-0.45161 0,-0.27698 0.198707,-0.4516 0.198707,-0.17463 0.656337,-0.16258 l 1.938902,-4.82919 h -0.806873 q -0.445586,0 -0.638272,-0.1686 -0.186664,-0.17463 -0.186664,-0.45161 0,-0.27699 0.186664,-0.44559 0.192686,-0.17462 0.638272,-0.17462 l 2.667496,0.006 2.456746,6.06359 q 0.433543,0 0.572036,0.0963 0.276986,0.19871 0.276986,0.52387 0,0.27096 -0.186664,0.44558 -0.186665,0.1686 -0.632251,0.1686 h -1.661916 q -0.445586,0 -0.638272,-0.1686 -0.186665,-0.17462 -0.186665,-0.45161 0,-0.27096 0.186665,-0.43956 0.192686,-0.17462 0.638272,-0.17462 h 0.301072 z m -0.511822,-1.2344 -0.993537,-2.4447 -0.999558,2.4447 z" />
    <path
       id="path12"
       style="font-weight:bold;font-size:12.3319px;font-family:'Courier New';-inkscape-font-specification:'Courier New, Bold';text-align:center;text-anchor:middle;fill:#2f74b9;stroke:#163858;stroke-width:0.15;stroke-linecap:round;stroke-linejoin:round;font-variation-settings:normal;opacity:1;vector-effect:none;fill-opacity:1;stroke-miterlimit:4;stroke-dasharray:none;stroke-dashoffset:0;stroke-opacity:1;-inkscape-stroke:none;stop-color:#000000;stop-opacity:1"
       d="m 20.049854,126.95495 h -2.998675 l -0.301071,0.75268 h 0.301071 q 0.445587,0 0.632251,0.17462 0.192686,0.1686 0.192686,0.44559 0,0.27096 -0.192686,0.44558 -0.186664,0.1686 -0.632251,0.1686 h -1.661916 q -0.445586,0 -0.63225,-0.1686 -0.192686,-0.17462 -0.192686,-0.45161 0,-0.27698 0.198707,-0.4516 0.198707,-0.17463 0.656337,-0.16258 l 1.938902,-4.82919 H 16.5514 q -0.445586,0 -0.638272,-0.1686 -0.186664,-0.17463 -0.186664,-0.45161 0,-0.27699 0.186664,-0.44559 0.192686,-0.17462 0.638272,-0.17462 l 2.667496,0.006 2.456746,6.06359 q 0.433543,0 0.572036,0.0963 0.276986,0.19871 0.276986,0.52387 0,0.27096 -0.186664,0.44558 -0.186665,0.1686 -0.632251,0.1686 h -1.661916 q -0.445586,0 -0.638272,-0.1686 -0.186665,-0.17462 -0.186665,-0.45161 0,-0.27096 0.186665,-0.43956 0.192686,-0.17462 0.638272,-0.17462 h 0.301072 z m -0.511822,-1.2344 -0.993537,-2.4447 -0.999558,2.4447 z" />
    <path
       id="path13"
       style="font-weight:bold;font-size:12.3319px;font-family:'Courier New';-inkscape-font-specification:'Courier New, Bold';text-align:center;text-anchor:middle;fill:#dcb908;stroke:#163858;stroke-width:0.15;stroke-linecap:round;stroke-linejoin:round"
       d="m 46.933149,104.96691 h -2.51696 q -0.445586,0 -0.638272,-0.1686 -0.186664,-0.17462 -0.186664,-0.45161 0,-0.27096 0.186664,-0.43956 0.192686,-0.17462 0.638272,-0.17462 h 3.751355 v 5.72638 q 0,0.65032 -0.276986,1.13203 -0.270965,0.48774 -0.83698,0.83698 -0.566015,0.34925 -1.276544,0.34925 h -1.396973 q -0.445587,0 -0.638272,-0.17463 -0.186665,-0.1686 -0.186665,-0.43956 0,-0.27699 0.186665,-0.45161 0.192685,-0.1686 0.638272,-0.1686 h 1.360844 q 0.566015,0 0.87913,-0.30709 0.313114,-0.30709 0.313114,-0.77677 z m 0.505801,-3.57673 v 1.30665 h -1.475252 v -1.30665 z m -0.505801,3.57673 h -2.51696 q -0.445586,0 -0.638272,-0.1686 -0.186664,-0.17462 -0.186664,-0.45161 0,-0.27096 0.186664,-0.43956 0.192686,-0.17462 0.638272,-0.17462 h 3.751355 v 5.72638 q 0,0.65032 -0.276986,1.13203 -0.270965,0.48774 -0.83698,0.83698 -0.566015,0.34925 -1.276544,0.34925 h -1.396973 q -0.445587,0 -0.638272,-0.17463 -0.186665,-0.1686 -0.186665,-0.43956 0,-0.27699 0.186665,-0.45161 0.192685,-0.1686 0.638272,-0.1686 h 1.360844 q 0.566015,0 0.87913,-0.30709 0.313114,-0.30709 0.313114,-0.77677 z" />
    <path
       id="path14"
       style="font-weight:bold;font-size:12.3319px;font-family:'Courier New';-inkscape-font-specification:'Courier New, Bold';text-align:center;text-anchor:middle;fill:#dcb908;stroke:#163858;stroke-width:0.15;stroke-linecap:round;stroke-linejoin:round"
       d="m 25.26892,125.29575 h -2.51696 q -0.445586,0 -0.638272,-0.1686 -0.186664,-0.17462 -0.186664,-0.45161 0,-0.27096 0.186664,-0.43956 0.192686,-0.17462 0.638272,-0.17462 h 3.751355 v 5.72638 q 0,0.65032 -0.276986,1.13203 -0.270965,0.48774 -0.83698,0.83698 -0.566015,0.34925 -1.276544,0.34925 h -1.396973 q -0.445587,0 -0.638272,-0.17463 -0.186665,-0.1686 -0.186665,-0.43956 0,-0.27699 0.186665,-0.45161 0.192685,-0.1686 0.638272,-0.1686 h 1.360844 q 0.566015,0 0.87913,-0.30709 0.313114,-0.30709 0.313114,-0.77677 z m 0.505801,-3.57673 v 1.30665 h -1.475252 v -1.30665 z m -0.505801,3.57673 h -2.51696 q -0.445586,0 -0.638272,-0.1686 -0.186664,-0.17462 -0.186664,-0.45161 0,-0.27096 0.186664,-0.43956 0.192686,-0.17462 0.638272,-0.17462 h 3.751355 v 5.72638 q 0,0.65032 -0.276986,1.13203 -0.270965,0.48774 -0.83698,0.83698 -0.566015,0.34925 -1.276544,0.34925 h -1.396973 q -0.445587,0 -0.638272,-0.17463 -0.186665,-0.1686 -0.186665,-0.43956 0,-0.27699 0.186665,-0.45161 0.192685,-0.1686 0.638272,-0.1686 h 1.360844 q 0.566015,0 0.87913,-0.30709 0.313114,-0.30709 0.313114,-0.77677 z" />
    <g
       id="g14"
       transform="translate(-1.093327,-1.8192832)">
      <path
         id="path12-1"
         style="font-weight:bold;font-size:12.3319px;font-family:'Courier New';-inkscape-font-specification:'Courier New, Bold';font-variation-settings:normal;text-align:center;text-anchor:middle;vector-effect:none;fill:#2f74b9;fill-opacity:1;stroke:#163858;stroke-width:0.15;stroke-linecap:round;stroke-linejoin:round;stroke-miterlimit:4;stroke-dasharray:none;stroke-dashoffset:0;stroke-opacity:1;-inkscape-stroke:none;stop-color:#000000"
         d="m -46.033223,101.43568 h -2.998675 l -0.301071,0.75268 h 0.301071 q 0.445587,0 0.632251,0.17462 0.192686,0.1686 0.192686,0.44559 0,0.27096 -0.192686,0.44558 -0.186664,0.1686 -0.632251,0.1686 h -1.661916 q -0.445586,0 -0.63225,-0.1686 -0.192686,-0.17462 -0.192686,-0.45161 0,-0.27698 0.198707,-0.4516 0.198707,-0.17463 0.656337,-0.16258 l 1.938902,-4.82919 h -0.806873 q -0.445586,0 -0.638272,-0.1686 -0.186664,-0.17463 -0.186664,-0.45161 0,-0.27699 0.186664,-0.44559 0.192686,-0.17462 0.638272,-0.17462 l 2.667496,0.006 2.456746,6.06359 q 0.433543,0 0.572036,0.0963 0.276986,0.19871 0.276986,0.52387 0,0.27096 -0.186664,0.44558 -0.186665,0.1686 -0.632251,0.1686 h -1.661916 q -0.445586,0 -0.638272,-0.1686 -0.186665,-0.17462 -0.186665,-0.45161 0,-0.27096 0.186665,-0.43956 0.192686,-0.17462 0.638272,-0.17462 h 0.301072 z m -0.511822,-1.2344 -0.993537,-2.4447 -0.999558,2.4447 z" />
      <path
         id="path14-7"
         style="font-weight:bold;font-size:12.3319px;font-family:'Courier New';-inkscape-font-specification:'Courier New, Bold';text-align:center;text-anchor:middle;fill:#dcb908;stroke:#163858;stroke-width:0.15;stroke-linecap:round;stroke-linejoin:round"
         d="m -40.814157,99.77648 h -2.51696 q -0.445586,0 -0.638272,-0.1686 -0.186664,-0.17462 -0.186664,-0.45161 0,-0.27096 0.186664,-0.43956 0.192686,-0.17462 0.638272,-0.17462 h 3.751355 v 5.72638 q 0,0.65032 -0.276986,1.13203 -0.270965,0.48774 -0.83698,0.83698 -0.566015,0.34925 -1.276544,0.34925 h -1.396973 q -0.445587,0 -0.638272,-0.17463 -0.186665,-0.1686 -0.186665,-0.43956 0,-0.27699 0.186665,-0.45161 0.192685,-0.1686 0.638272,-0.1686 h 1.360844 q 0.566015,0 0.87913,-0.30709 0.313114,-0.30709 0.313114,-0.77677 z m 0.505801,-3.57673 v 1.30665 h -1.475252 v -1.30665 z m -0.505801,3.57673 h -2.51696 q -0.445586,0 -0.638272,-0.1686 -0.186664,-0.17462 -0.186664,-0.45161 0,-0.27096 0.186664,-0.43956 0.192686,-0.17462 0.638272,-0.17462 h 3.751355 v 5.72638 q 0,0.65032 -0.276986,1.13203 -0.270965,0.48774 -0.83698,0.83698 -0.566015,0.34925 -1.276544,0.34925 h -1.396973 q -0.445587,0 -0.638272,-0.17463 -0.186665,-0.1686 -0.186665,-0.43956 0,-0.27699 0.186665,-0.45161 0.192685,-0.1686 0.638272,-0.1686 h 1.360844 q 0.566015,0 0.87913,-0.30709 0.313114,-0.30709 0.313114,-0.77677 z" />
    </g>
    <path
       id="path15"
       style="font-weight:bold;font-size:12.3319px;font-family:'Courier New';-inkscape-font-specification:'Courier New, Bold';font-variation-settings:normal;text-align:center;text-anchor:middle;opacity:1;vector-effect:none;fill:#2f74b9;fill-opacity:1;stroke:#163858;stroke-width:0.15;stroke-linecap:round;stroke-linejoin:round;stroke-miterlimit:4;stroke-dasharray:none;stroke-dashoffset:0;stroke-opacity:1;-inkscape-stroke:none;stop-color:#000000;stop-opacity:1"
       d="m 65.694368,126.95495 h -2.998675 l -0.301071,0.75268 h 0.301071 c 0.297058,0 0.507808,0.0582 0.632251,0.17462 0.128457,0.1124 0.192686,0.26093 0.192686,0.44559 0,0.18064 -0.06423,0.32917 -0.192686,0.44558 -0.124443,0.1124 -0.335193,0.1686 -0.632251,0.1686 h -1.661916 c -0.297057,0 -0.507807,-0.0562 -0.63225,-0.1686 -0.128457,-0.11641 -0.192686,-0.26695 -0.192686,-0.45161 0,-0.18465 0.06624,-0.33519 0.198707,-0.4516 0.132471,-0.11642 0.35125,-0.17061 0.656337,-0.16258 l 1.938902,-4.82919 h -0.806873 c -0.297057,0 -0.509815,-0.0562 -0.638272,-0.1686 -0.124443,-0.11642 -0.186664,-0.26696 -0.186664,-0.45161 0,-0.18466 0.06222,-0.33319 0.186664,-0.44559 0.128457,-0.11641 0.341215,-0.17462 0.638272,-0.17462 l 2.667496,0.006 2.456746,6.06359 c 0.289029,0 0.479707,0.0321 0.572036,0.0963 0.184657,0.13247 0.276986,0.3071 0.276986,0.52387 0,0.18064 -0.06222,0.32917 -0.186664,0.44558 -0.124443,0.1124 -0.335194,0.1686 -0.632251,0.1686 h -1.661916 c -0.297057,0 -0.509815,-0.0562 -0.638272,-0.1686 -0.124443,-0.11641 -0.186665,-0.26695 -0.186665,-0.45161 0,-0.18064 0.06222,-0.32716 0.186665,-0.43956 0.128457,-0.11641 0.341215,-0.17462 0.638272,-0.17462 h 0.301072 z m -0.511822,-1.2344 -0.993537,-2.4447 -0.999558,2.4447 z"
       sodipodi:nodetypes="cccscscsscssccscscccccscsscscscccccc" />
    <path
       id="path16"
       style="font-weight:bold;font-size:12.3319px;font-family:'Courier New';-inkscape-font-specification:'Courier New, Bold';text-align:center;text-anchor:middle;fill:#dcb908;stroke:#163858;stroke-width:0.15;stroke-linecap:round;stroke-linejoin:round"
       d="m 70.913434,125.29575 h -2.51696 c -0.297057,0 -0.509815,-0.0562 -0.638272,-0.1686 -0.124443,-0.11641 -0.186664,-0.26695 -0.186664,-0.45161 0,-0.18064 0.06222,-0.32716 0.186664,-0.43956 0.128457,-0.11641 0.341215,-0.17462 0.638272,-0.17462 h 3.751355 v 5.72638 c 0,0.43355 -0.09233,0.81089 -0.276986,1.13203 -0.180643,0.32516 -0.459637,0.60415 -0.83698,0.83698 -0.377343,0.23283 -0.802858,0.34925 -1.276544,0.34925 h -1.396973 c -0.297058,0 -0.509815,-0.0582 -0.638272,-0.17463 -0.124443,-0.1124 -0.186665,-0.25892 -0.186665,-0.43956 0,-0.18466 0.06222,-0.3352 0.186665,-0.45161 0.128457,-0.1124 0.341214,-0.1686 0.638272,-0.1686 h 1.360844 c 0.377343,0 0.670387,-0.10236 0.87913,-0.30709 0.208743,-0.20473 0.313114,-0.46365 0.313114,-0.77677 z m -0.776303,-3.57673 v 1.30665 l -1.780648,0 c -1.003382,0 -1.025924,-1.30665 0,-1.30665 z m 0.776303,3.57673 h -2.51696 c -0.297057,0 -0.509815,-0.0562 -0.638272,-0.1686 -0.124443,-0.11641 -0.186664,-0.26695 -0.186664,-0.45161 0,-0.18064 0.06222,-0.32716 0.186664,-0.43956 0.128457,-0.11641 0.341215,-0.17462 0.638272,-0.17462 h 3.751355 v 5.72638 c 0,0.43355 -0.09233,0.81089 -0.276986,1.13203 -0.180643,0.32516 -0.459637,0.60415 -0.83698,0.83698 -0.377343,0.23283 -0.802858,0.34925 -1.276544,0.34925 h -1.396973 c -0.297058,0 -0.509815,-0.0582 -0.638272,-0.17463 -0.124443,-0.1124 -0.186665,-0.25892 -0.186665,-0.43956 0,-0.18466 0.06222,-0.3352 0.186665,-0.45161 0.128457,-0.1124 0.341214,-0.1686 0.638272,-0.1686 h 1.360844 c 0.377343,0 0.670387,-0.10236 0.87913,-0.30709 0.208743,-0.20473 0.313114,-0.46365 0.313114,-0.77677 z"
       sodipodi:nodetypes="cscscscscssscscsssscccccccscscscscssscscssssc" />
  </g>
</svg>
